source_json = {
    "title": "PillarsOfSerpents",
    "notes": [
      {
        "name": "A#3",
        "midi": 58,
        "time": 0,
        "velocity": 0.7007874015748031,
        "duration": 0.125
      },
      {
        "name": "D4",
        "midi": 62,
        "time": 0.125,
        "velocity": 0.7007874015748031,
        "duration": 0.125
      },
      {
        "name": "C#4",
        "midi": 61,
        "time": 0.25,
        "velocity": 0.7007874015748031,
        "duration": 0.125
      },
      {
        "name": "D4",
        "midi": 62,
        "time": 0.375,
        "velocity": 0.7007874015748031,
        "duration": 0.125
      },
      {
        "name": "F3",
        "midi": 53,
        "time": 0.5,
        "velocity": 0.7007874015748031,
        "duration": 0.125
      },
      {
        "name": "D4",
        "midi": 62,
        "time": 0.625,
        "velocity": 0.7007874015748031,
        "duration": 0.125
      },
      {
        "name": "C#4",
        "midi": 61,
        "time": 0.75,
        "velocity": 0.7007874015748031,
        "duration": 0.125
      },
      {
        "name": "D4",
        "midi": 62,
        "time": 0.875,
        "velocity": 0.7007874015748031,
        "duration": 0.125
      },
      {
        "name": "F3",
        "midi": 53,
        "time": 1,
        "velocity": 0.7007874015748031,
        "duration": 0.125
      },
      {
        "name": "D4",
        "midi": 62,
        "time": 1.125,
        "velocity": 0.7007874015748031,
        "duration": 0.125
      },
      {
        "name": "C#4",
        "midi": 61,
        "time": 1.25,
        "velocity": 0.7007874015748031,
        "duration": 0.125
      },
      {
        "name": "D4",
        "midi": 62,
        "time": 1.375,
        "velocity": 0.7007874015748031,
        "duration": 0.125
      },
      {
        "name": "F3",
        "midi": 53,
        "time": 1.5,
        "velocity": 0.7007874015748031,
        "duration": 0.125
      },
      {
        "name": "D4",
        "midi": 62,
        "time": 1.625,
        "velocity": 0.7007874015748031,
        "duration": 0.125
      },
      {
        "name": "C#4",
        "midi": 61,
        "time": 1.75,
        "velocity": 0.7007874015748031,
        "duration": 0.125
      },
      {
        "name": "D4",
        "midi": 62,
        "time": 1.875,
        "velocity": 0.7007874015748031,
        "duration": 0.125
      },
      {
        "name": "C#4",
        "midi": 61,
        "time": 2,
        "velocity": 0.7007874015748031,
        "duration": 0.125
      },
      {
        "name": "C#4",
        "midi": 61,
        "time": 2.125,
        "velocity": 0.7007874015748031,
        "duration": 0.125
      },
      {
        "name": "B3",
        "midi": 59,
        "time": 2.25,
        "velocity": 0.7007874015748031,
        "duration": 0.125
      },
      {
        "name": "C#4",
        "midi": 61,
        "time": 2.375,
        "velocity": 0.7007874015748031,
        "duration": 0.125
      },
      {
        "name": "D4",
        "midi": 62,
        "time": 2.5,
        "velocity": 0.7007874015748031,
        "duration": 0.125
      },
      {
        "name": "D4",
        "midi": 62,
        "time": 2.625,
        "velocity": 0.7007874015748031,
        "duration": 0.125
      },
      {
        "name": "C#4",
        "midi": 61,
        "time": 2.75,
        "velocity": 0.7007874015748031,
        "duration": 0.125
      },
      {
        "name": "D4",
        "midi": 62,
        "time": 2.875,
        "velocity": 0.7007874015748031,
        "duration": 0.125
      },
      {
        "name": "E4",
        "midi": 64,
        "time": 3,
        "velocity": 0.7007874015748031,
        "duration": 0.125
      },
      {
        "name": "E4",
        "midi": 64,
        "time": 3.125,
        "velocity": 0.7007874015748031,
        "duration": 0.125
      },
      {
        "name": "D4",
        "midi": 62,
        "time": 3.25,
        "velocity": 0.7007874015748031,
        "duration": 0.125
      },
      {
        "name": "E4",
        "midi": 64,
        "time": 3.375,
        "velocity": 0.7007874015748031,
        "duration": 0.125
      },
      {
        "name": "F4",
        "midi": 65,
        "time": 3.5,
        "velocity": 0.7007874015748031,
        "duration": 0.125
      },
      {
        "name": "F4",
        "midi": 65,
        "time": 3.625,
        "velocity": 0.7007874015748031,
        "duration": 0.125
      },
      {
        "name": "E4",
        "midi": 64,
        "time": 3.75,
        "velocity": 0.7007874015748031,
        "duration": 0.125
      },
      {
        "name": "D4",
        "midi": 62,
        "time": 3.875,
        "velocity": 0.7007874015748031,
        "duration": 0.125
      },
      {
        "name": "C#4",
        "midi": 61,
        "time": 4,
        "velocity": 0.7007874015748031,
        "duration": 0.125
      },
      {
        "name": "C#4",
        "midi": 61,
        "time": 4.125,
        "velocity": 0.7007874015748031,
        "duration": 0.125
      },
      {
        "name": "A3",
        "midi": 57,
        "time": 4.25,
        "velocity": 0.7007874015748031,
        "duration": 0.0625
      },
      {
        "name": "B3",
        "midi": 59,
        "time": 4.3125,
        "velocity": 0.7007874015748031,
        "duration": 0.0625
      },
      {
        "name": "C#4",
        "midi": 61,
        "time": 4.375,
        "velocity": 0.7007874015748031,
        "duration": 0.0625
      },
      {
        "name": "D4",
        "midi": 62,
        "time": 4.4375,
        "velocity": 0.7007874015748031,
        "duration": 0.0625
      },
      {
        "name": "D4",
        "midi": 62,
        "time": 4.5,
        "velocity": 0.7007874015748031,
        "duration": 0.125
      },
      {
        "name": "D4",
        "midi": 62,
        "time": 4.625,
        "velocity": 0.7007874015748031,
        "duration": 0.125
      },
      {
        "name": "B3",
        "midi": 59,
        "time": 4.75,
        "velocity": 0.7007874015748031,
        "duration": 0.0625
      },
      {
        "name": "C#4",
        "midi": 61,
        "time": 4.8125,
        "velocity": 0.7007874015748031,
        "duration": 0.0625
      },
      {
        "name": "D4",
        "midi": 62,
        "time": 4.875,
        "velocity": 0.7007874015748031,
        "duration": 0.0625
      },
      {
        "name": "E4",
        "midi": 64,
        "time": 4.9375,
        "velocity": 0.7007874015748031,
        "duration": 0.0625
      },
      {
        "name": "E4",
        "midi": 64,
        "time": 5,
        "velocity": 0.7007874015748031,
        "duration": 0.125
      },
      {
        "name": "E4",
        "midi": 64,
        "time": 5.125,
        "velocity": 0.7007874015748031,
        "duration": 0.125
      },
      {
        "name": "C#4",
        "midi": 61,
        "time": 5.25,
        "velocity": 0.7007874015748031,
        "duration": 0.0625
      },
      {
        "name": "D4",
        "midi": 62,
        "time": 5.3125,
        "velocity": 0.7007874015748031,
        "duration": 0.0625
      },
      {
        "name": "F4",
        "midi": 65,
        "time": 5.375,
        "velocity": 0.7007874015748031,
        "duration": 0.0625
      },
      {
        "name": "F4",
        "midi": 65,
        "time": 5.4375,
        "velocity": 0.7007874015748031,
        "duration": 0.0625
      },
      {
        "name": "F4",
        "midi": 65,
        "time": 5.5,
        "velocity": 0.7007874015748031,
        "duration": 0.125
      },
      {
        "name": "F4",
        "midi": 65,
        "time": 5.625,
        "velocity": 0.7007874015748031,
        "duration": 0.125
      },
      {
        "name": "E4",
        "midi": 64,
        "time": 5.75,
        "velocity": 0.7007874015748031,
        "duration": 0.125
      },
      {
        "name": "D4",
        "midi": 62,
        "time": 5.875,
        "velocity": 0.7007874015748031,
        "duration": 0.125
      },
      {
        "name": "C#4",
        "midi": 61,
        "time": 6,
        "velocity": 0.7007874015748031,
        "duration": 0.125
      },
      {
        "name": "C#4",
        "midi": 61,
        "time": 6.125,
        "velocity": 0.7007874015748031,
        "duration": 0.125
      },
      {
        "name": "B3",
        "midi": 59,
        "time": 6.25,
        "velocity": 0.7007874015748031,
        "duration": 0.125
      },
      {
        "name": "C#4",
        "midi": 61,
        "time": 6.375,
        "velocity": 0.7007874015748031,
        "duration": 0.125
      },
      {
        "name": "D4",
        "midi": 62,
        "time": 6.5,
        "velocity": 0.7007874015748031,
        "duration": 0.125
      },
      {
        "name": "D4",
        "midi": 62,
        "time": 6.625,
        "velocity": 0.7007874015748031,
        "duration": 0.125
      },
      {
        "name": "C#4",
        "midi": 61,
        "time": 6.75,
        "velocity": 0.7007874015748031,
        "duration": 0.125
      },
      {
        "name": "D4",
        "midi": 62,
        "time": 6.875,
        "velocity": 0.7007874015748031,
        "duration": 0.125
      },
      {
        "name": "E4",
        "midi": 64,
        "time": 7,
        "velocity": 0.7007874015748031,
        "duration": 0.125
      },
      {
        "name": "E4",
        "midi": 64,
        "time": 7.125,
        "velocity": 0.7007874015748031,
        "duration": 0.125
      },
      {
        "name": "D4",
        "midi": 62,
        "time": 7.25,
        "velocity": 0.7007874015748031,
        "duration": 0.125
      },
      {
        "name": "E4",
        "midi": 64,
        "time": 7.375,
        "velocity": 0.7007874015748031,
        "duration": 0.125
      },
      {
        "name": "F4",
        "midi": 65,
        "time": 7.5,
        "velocity": 0.7007874015748031,
        "duration": 0.125
      },
      {
        "name": "F4",
        "midi": 65,
        "time": 7.625,
        "velocity": 0.7007874015748031,
        "duration": 0.125
      },
      {
        "name": "E4",
        "midi": 64,
        "time": 7.75,
        "velocity": 0.7007874015748031,
        "duration": 0.125
      },
      {
        "name": "D4",
        "midi": 62,
        "time": 7.875,
        "velocity": 0.7007874015748031,
        "duration": 0.125
      },
      {
        "name": "C#4",
        "midi": 61,
        "time": 8,
        "velocity": 0.7007874015748031,
        "duration": 0.5
      },
      {
        "name": "C#4",
        "midi": 61,
        "time": 8.5,
        "velocity": 0.7007874015748031,
        "duration": 0.5
      },
      {
        "name": "C#4",
        "midi": 61,
        "time": 9,
        "velocity": 0.7007874015748031,
        "duration": 0.5
      }
    ],
}